<svg xmlns="http://www.w3.org/2000/svg" viewBox="0 0 24 24"><path d="M8 18.5a1 1 0 1 0 1 1 1 1 0 0 0-1-1zm0-8a1 1 0 1 0 1 1 1 1 0 0 0-1-1zm4 8a1 1 0 1 0 1 1 1 1 0 0 0-1-1zm-8-12a1 1 0 1 0 1 1 1 1 0 0 0-1-1zm0 12a1 1 0 1 0 1 1 1 1 0 0 0-1-1zm0-14h16a1 1 0 0 0 0-2H4a1 1 0 0 0 0 2zm0 10a1 1 0 1 0 1 1 1 1 0 0 0-1-1zm0-4a1 1 0 1 0 1 1 1 1 0 0 0-1-1zm8-4a1 1 0 1 0 1 1 1 1 0 0 0-1-1zm8 8a1 1 0 1 0 1 1 1 1 0 0 0-1-1zm0 4a1 1 0 1 0 1 1 1 1 0 0 0-1-1zm-8-4a1 1 0 1 0 1 1 1 1 0 0 0-1-1zm8-8a1 1 0 1 0 1 1 1 1 0 0 0-1-1zm0 4a1 1 0 1 0 1 1 1 1 0 0 0-1-1zm-8 0a1 1 0 1 0 1 1 1 1 0 0 0-1-1zm4 0a1 1 0 1 0 1 1 1 1 0 0 0-1-1zm0 8a1 1 0 1 0 1 1 1 1 0 0 0-1-1z"/></svg>