<svg xmlns="http://www.w3.org/2000/svg" viewBox="0 0 24 24"><path d="M8 5a1 1 0 1 0-1-1 1 1 0 0 0 1 1zM4 9a1 1 0 1 0-1-1 1 1 0 0 0 1 1zm8 0a1 1 0 1 0-1-1 1 1 0 0 0 1 1zM4 5a1 1 0 1 0-1-1 1 1 0 0 0 1 1zm12 0a1 1 0 1 0-1-1 1 1 0 0 0 1 1zm-4 0a1 1 0 1 0-1-1 1 1 0 0 0 1 1zm8 0a1 1 0 1 0-1-1 1 1 0 0 0 1 1zM4 19a1 1 0 1 0 1 1 1 1 0 0 0-1-1zm16 0a1 1 0 1 0 1 1 1 1 0 0 0-1-1zm0-4a1 1 0 1 0 1 1 1 1 0 0 0-1-1zm0-4H4a1 1 0 0 0 0 2h16a1 1 0 0 0 0-2zm-4 8a1 1 0 1 0 1 1 1 1 0 0 0-1-1zM4 15a1 1 0 1 0 1 1 1 1 0 0 0-1-1zm16-8a1 1 0 1 0 1 1 1 1 0 0 0-1-1zM8 19a1 1 0 1 0 1 1 1 1 0 0 0-1-1zm4 0a1 1 0 1 0 1 1 1 1 0 0 0-1-1zm0-4a1 1 0 1 0 1 1 1 1 0 0 0-1-1z"/></svg>