<svg xmlns="http://www.w3.org/2000/svg" viewBox="0 0 24 24"><path d="M12 13.5a1 1 0 1 0-1-1 1 1 0 0 0 1 1zm0 4a1 1 0 1 0-1-1 1 1 0 0 0 1 1zm0-8a1 1 0 1 0-1-1 1 1 0 0 0 1 1zm-4-4a1 1 0 1 0-1-1 1 1 0 0 0 1 1zm0 8a1 1 0 1 0-1-1 1 1 0 0 0 1 1zm12-8a1 1 0 1 0-1-1 1 1 0 0 0 1 1zm-4 8a1 1 0 1 0-1-1 1 1 0 0 0 1 1zm-4-8a1 1 0 1 0-1-1 1 1 0 0 0 1 1zm4 0a1 1 0 1 0-1-1 1 1 0 0 0 1 1zm4 10a1 1 0 1 0 1 1 1 1 0 0 0-1-1zm0-4a1 1 0 1 0 1 1 1 1 0 0 0-1-1zm0 8H4a1 1 0 0 0 0 2h16a1 1 0 0 0 0-2zm0-12a1 1 0 1 0 1 1 1 1 0 0 0-1-1zm-16 6a1 1 0 1 0-1-1 1 1 0 0 0 1 1zm0-4a1 1 0 1 0-1-1 1 1 0 0 0 1 1zm0 8a1 1 0 1 0-1-1 1 1 0 0 0 1 1zm0-12a1 1 0 1 0-1-1 1 1 0 0 0 1 1z"/></svg>