<svg xmlns="http://www.w3.org/2000/svg" data-name="Layer 1" viewBox="0 0 24 24"><path d="M11.24 13.14a1 1 0 0 0-1.37.36 1 1 0 0 1-1.58.19A.93.93 0 0 1 8 13v-2a1 1 0 0 1 1.88-.48 1 1 0 0 0 1.37.34 1 1 0 0 0 .34-1.38 3.08 3.08 0 0 0-.46-.59A3 3 0 0 0 9 8a3 3 0 0 0-3 3v2a3 3 0 0 0 5.59 1.5 1 1 0 0 0-.35-1.36zm6 0a1 1 0 0 0-1.37.36 1 1 0 0 1-1.58.19A.93.93 0 0 1 14 13v-2a1 1 0 0 1 1.88-.48 1 1 0 0 0 1.37.34 1 1 0 0 0 .34-1.38 3.08 3.08 0 0 0-.46-.59A3 3 0 0 0 15 8a3 3 0 0 0-3 3v2a3 3 0 0 0 5.59 1.5 1 1 0 0 0-.35-1.36zM12 2a10 10 0 1 0 10 10A10 10 0 0 0 12 2zm0 18a8 8 0 1 1 8-8 8 8 0 0 1-8 8z"/></svg>