<svg xmlns="http://www.w3.org/2000/svg" data-name="Layer 1" viewBox="0 0 24 24"><path d="M21 19h-6.18A3 3 0 0 0 13 17.18V15h3a3 3 0 0 0 3-3V7.94a1.31 1.31 0 0 0-.06-.27v-.09a1.07 1.07 0 0 0-.19-.28l-6-6a1.07 1.07 0 0 0-.28-.19.32.32 0 0 0-.09 0 .88.88 0 0 0-.33-.11H8a3 3 0 0 0-3 3v8a3 3 0 0 0 3 3h3v2.18A3 3 0 0 0 9.18 19H3a1 1 0 0 0 0 2h6.18a3 3 0 0 0 5.64 0H21a1 1 0 0 0 0-2zM13 4.41L15.59 7H14a1 1 0 0 1-1-1zM8 13a1 1 0 0 1-1-1V4a1 1 0 0 1 1-1h3v3a3 3 0 0 0 3 3h3v3a1 1 0 0 1-1 1zm4 8a1 1 0 1 1 1-1 1 1 0 0 1-1 1z"/></svg>