<svg xmlns="http://www.w3.org/2000/svg" data-name="Layer 1" viewBox="0 0 24 24"><path d="M15 17a1 1 0 1 0 1 1 1 1 0 0 0-1-1zm-4 0H9a1 1 0 0 0 0 2h2a1 1 0 0 0 0-2zm0-6H9a1 1 0 0 0 0 2h2a1 1 0 0 0 0-2zm4 0a1 1 0 1 0 1 1 1 1 0 0 0-1-1zm8-3a3 3 0 0 0-3-3h-1a3 3 0 0 0-3-3H8a3 3 0 0 0-3 3H4a3 3 0 0 0-3 3v2a3 3 0 0 0 .78 2A3 3 0 0 0 1 14v2a3 3 0 0 0 3 3h1a3 3 0 0 0 3 3h8a3 3 0 0 0 3-3h1a3 3 0 0 0 3-3v-2a3 3 0 0 0-.78-2 3 3 0 0 0 .78-2zM5 17H4a1 1 0 0 1-1-1v-2a1 1 0 0 1 1-1h1a3 3 0 0 0 .78 2A3 3 0 0 0 5 17zm0-6H4a1 1 0 0 1-1-1V8a1 1 0 0 1 1-1h1a3 3 0 0 0 .78 2A3 3 0 0 0 5 11zm12 8a1 1 0 0 1-1 1H8a1 1 0 0 1-1-1v-2a1 1 0 0 1 1-1h8a1 1 0 0 1 1 1zm0-6a1 1 0 0 1-1 1H8a1 1 0 0 1-1-1v-2a1 1 0 0 1 1-1h8a1 1 0 0 1 1 1zm0-6a1 1 0 0 1-1 1H8a1 1 0 0 1-1-1V5a1 1 0 0 1 1-1h8a1 1 0 0 1 1 1zm4 9a1 1 0 0 1-1 1h-1a3 3 0 0 0-.78-2 3 3 0 0 0 .78-2h1a1 1 0 0 1 1 1zm0-6a1 1 0 0 1-1 1h-1a3 3 0 0 0-.78-2A3 3 0 0 0 19 7h1a1 1 0 0 1 1 1zm-6-5a1 1 0 1 0 1 1 1 1 0 0 0-1-1zm-4 0H9a1 1 0 0 0 0 2h2a1 1 0 0 0 0-2z"/></svg>