<svg xmlns="http://www.w3.org/2000/svg" data-name="Layer 1" viewBox="0 0 24 24"><path d="M9 11a1 1 0 1 0-1-1 1 1 0 0 0 1 1zm6 0a1 1 0 1 0-1-1 1 1 0 0 0 1 1zm.27 3.2a1 1 0 0 0-1.2 0l-.74.55-.73-.55a1 1 0 0 0-1.2 0l-.73.55-.74-.55a1 1 0 0 0-1.2 0l-1.33 1a1 1 0 1 0 1.2 1.6l.73-.55.74.55.12.06a.83.83 0 0 0 .22.08h.12a1 1 0 0 0 .25 0h.1a1.06 1.06 0 0 0 .34-.16l.73-.55.73.55a1 1 0 0 0 1 .11l.1-.05a.39.39 0 0 0 .11-.06l.74-.55.73.55a1 1 0 0 0 .6.2 1 1 0 0 0 .8-.4 1 1 0 0 0-.2-1.4zM12 2a10 10 0 1 0 10 10A10 10 0 0 0 12 2zm0 18a8 8 0 1 1 8-8 8 8 0 0 1-8 8z"/></svg>